<svg xmlns="http://www.w3.org/2000/svg" xml:space="preserve" viewBox="0 0 92 16"><path fill="#F6F6F6" d="M5.1 9.6v4.7h2.4V11H14l.1.1c.2.1.2.2.3.5v2.7h2.4v-1.6c0-1.8 0-1.8-.1-2.1-.1-.2-.3-.4-.5-.5-.1 0-.3-.1-.4-.1h-.2.1c.3-.1.7-.5.9-.9.3-.6.4-1.5.2-2.2-.3-.9-.9-1.5-2-1.7-.4-.1-1.1-.1-5.6-.1H5v4.5zm13.4-1.3c0 3.7 0 3.5.2 4.1.3 1 1.1 1.6 2.2 1.8.5.1.3.1 3.2.1 2.5 0 2.6 0 3.2-.1.6-.1 1.1-.4 1.5-.8.5-.5.7-.8.8-1.6 0-.2 0-.7.1-3.6V4.9H27v3c0 3.3 0 3.2-.2 3.6-.1.2-.4.4-.7.6-.1 0-.4 0-2 .1-2.5 0-2.1 0-2.5-.2-.2-.1-.4-.3-.5-.5-.1-.3-.1-.3-.1-3.6v-3h-2.4l-.1 3.4zM30.8 6v1.1h5v7.2h2.6V7.1h5V4.9H30.7V6zm13.8 2.3c0 2.8 0 3.4.1 3.6.1.8.3 1.2.8 1.6.2.2.5.4.8.5.4.2.7.3 1.2.3.4.1 4.9.1 5.4 0 .8-.1 1.4-.3 1.9-.8.3-.3.6-.7.7-1.1.2-.5.2-.3.2-4.1V4.9h-2.4V8c0 2.9 0 3.1-.1 3.2-.1.3-.3.6-.6.7-.3.1-.4.1-2.4.1h-2.3c-.5-.2-.7-.4-.8-.8 0-.1 0-.4-.1-3.2V4.9h-2.4v3.4zm13 1.3v4.7H67.5c.9-.1 1.5-.5 1.9-1 .4-.6.5-1.5.3-2.3-.1-.4-.4-.8-.7-1l-.6-.3h-.1l.3-.1c.5-.3.9-.8 1-1.5V6.9c0-.9-.6-1.5-1.3-1.7-.3-.1-.4-.2-.7-.2-.2 0-.8 0-5.1-.1h-4.9v4.7zm13.9 0v4.7H83.4v-2.2h-9.5v-1.4h8.8V8.5h-8.8V7.1h9.5V4.9H71.5v4.7zM66.7 7c.3 0 .5.1.6.4.1.2.1.4 0 .7-.1.2-.2.3-.3.4l-.1.1h-6.8V7h6.6zm-52.6.2c.3.1.4.4.4.9 0 .4-.2.6-.5.7H7.6V7.1h6.3l.2.1zm53 3.5c.1.1.3.2.3.3.1.2.1.4.1.6-.1.3-.2.4-.4.5-.1 0-.3.1-3.6.1h-3.4v-1.6h3.5c3.2 0 3.4.1 3.5.1z"/><ellipse cx="86.4" cy="3.3" fill="#FF2D2D" rx="1.7" ry="1.6"/></svg>