<svg viewBox="0 0 92 16" fill="#fff" xmlns="http://www.w3.org/2000/svg"><path fill-rule="evenodd" clip-rule="evenodd" d="M0 8.77552V13.9309H1.35119H2.70238V12.1195V10.3081L6.05813 10.3159L9.78766 10.3236L9.93544 10.4115C10.1133 10.5173 10.2075 10.6779 10.2523 10.9516C10.2704 11.0615 10.2835 11.729 10.2837 12.5362L10.2839 13.9309H11.6351H12.9863L12.9859 12.1273C12.9855 10.1946 12.9858 10.1979 12.8276 9.8656C12.727 9.65419 12.4522 9.3751 12.236 9.26483C12.1393 9.21547 11.9457 9.15162 11.8059 9.12291L11.5516 9.07071L11.7087 9.01933C12.0927 8.89376 12.5209 8.50782 12.7501 8.08075C13.0849 7.4567 13.1634 6.44662 12.9408 5.62471C12.6649 4.60595 11.9543 3.97685 10.7943 3.7244C10.3793 3.63408 9.58103 3.62067 4.59827 3.62041L0 3.62012V8.77552ZM14.6953 7.33697C14.7081 11.4319 14.6988 11.2278 14.8995 11.8043C15.27 12.868 16.0826 13.5497 17.2827 13.8033C17.8582 13.9249 17.6105 13.9291 20.75 13.9291C23.5152 13.9291 23.6409 13.925 24.2172 13.8034C24.865 13.6668 25.45 13.3679 25.863 12.9626C26.3736 12.4616 26.584 12.0369 26.7439 11.1853C26.7836 10.9735 26.7924 10.3996 26.8038 7.27856L26.8171 3.62012H25.4488H24.0806V6.91885C24.0806 10.5434 24.0847 10.4553 23.8968 10.8259C23.7576 11.1005 23.4873 11.305 23.0816 11.4425C22.9581 11.4844 22.6557 11.4909 20.8516 11.4992C18.1405 11.5095 18.5041 11.5089 18.1329 11.333C17.9176 11.231 17.6994 11.0244 17.5888 10.8178C17.4181 10.4985 17.4205 10.5537 17.4199 6.94265L17.4194 3.62012H16.0515H14.6836L14.6953 7.33697ZM28.1891 4.81769V6.01526H30.937H33.6849V9.97309V13.9309H35.112H36.5391V9.97309V6.01526H39.2719H42.0046V4.81769V3.62012H35.0969H28.1891V4.81769ZM43.39 7.27856C43.4013 10.3897 43.4102 10.9741 43.4496 11.1853C43.6036 12.0108 43.8211 12.4588 44.297 12.9309C44.5591 13.1909 44.8071 13.3613 45.1565 13.5217C45.6173 13.7332 45.8731 13.8028 46.503 13.8878C46.97 13.9509 51.9029 13.9515 52.3967 13.8886C53.3072 13.7725 53.9683 13.5057 54.4949 13.0417C54.8557 12.7237 55.1123 12.3266 55.2942 11.8043C55.495 11.2278 55.4856 11.4319 55.4985 7.33697L55.5101 3.62012H54.1429H52.7758L52.7665 7.03028C52.7578 10.2224 52.7537 10.4503 52.7026 10.5943C52.5785 10.9441 52.3383 11.2126 52.0252 11.3515C51.6731 11.5077 51.6349 11.5095 49.3414 11.5004L47.2518 11.492L47.0508 11.4166C46.5504 11.2291 46.3299 11.0034 46.183 10.5281C46.1326 10.3651 46.1283 10.1177 46.1204 6.98647L46.1119 3.62012H44.7443H43.3766L43.39 7.27856ZM57.6724 8.77418V13.9309H62.9851C67.696 13.9309 68.3348 13.9256 68.6245 13.8842C69.619 13.7421 70.2667 13.3889 70.7247 12.7388C71.1643 12.1149 71.3253 11.0501 71.1031 10.236C70.9842 9.80044 70.6819 9.34782 70.3544 9.11508C70.1794 8.99068 69.8982 8.84767 69.7188 8.79176L69.6047 8.75619L69.8835 8.62565C70.484 8.34445 70.8898 7.77464 71.0352 7.00837C71.089 6.72478 71.0804 6.04912 71.019 5.73851C70.8439 4.85248 70.2457 4.15397 69.4231 3.87491C69.1271 3.77446 69.007 3.74356 68.6944 3.68739C68.4665 3.64647 67.8066 3.63966 63.0543 3.62923L57.6724 3.61743V8.77418ZM72.9548 8.77552V13.9309H79.1325H86.0522L86.0541 12.7334L86.056 11.5358H80.4704H75.6268V10.7471V9.95849H80.4698H85.2616V8.77552V7.59255H80.4698H75.6268V6.80391V6.01526H80.4698H86.0547V4.81769V3.62012H79.1338H72.9548V8.77552ZM67.7013 5.95749C68.0471 6.0056 68.2114 6.11548 68.3331 6.38026C68.4321 6.59556 68.4435 6.86855 68.3641 7.1203C68.2927 7.34629 68.1934 7.4645 67.9849 7.57179L67.8594 7.63637L64.1019 7.64423L60.3444 7.65208V6.78986V5.92764L63.9197 5.92822C66.0968 5.92857 67.5757 5.94002 67.7013 5.95749ZM9.86466 6.1255C10.209 6.28857 10.3369 6.56311 10.3066 7.07403C10.2818 7.49418 10.0863 7.77777 9.74418 7.89028C9.65564 7.91937 8.83794 7.92928 5.97982 7.93585L2.70238 7.9442V6.97928V6.01436L5.99564 6.0221L9.66274 6.02987L9.86466 6.1255ZM68.0871 9.96906C68.2372 10.0459 68.3882 10.19 68.4383 10.3043C68.5201 10.491 68.5498 10.7521 68.512 10.9525C68.4513 11.2746 68.3216 11.4458 68.0568 11.5533C67.9254 11.6067 67.7753 11.6091 64.1322 11.6167L60.3444 11.6245V10.7617V9.89876L64.1626 9.90673C67.8194 9.91433 67.9854 9.91698 68.0871 9.96906Z" fill="#F6F6F6"></path><ellipse cx="89.3677" cy="1.80872" rx="1.86901" ry="1.80872" fill="#FF2D2D"></ellipse></svg>