<svg version="1.1" id="Слой_1" xmlns="http://www.w3.org/2000/svg" xmlns:xlink="http://www.w3.org/1999/xlink" x="0px" y="0px"
	 viewBox="0 0 32 32" style="enable-background:new 0 0 32 32;" xml:space="preserve">
<path d="M30.5,28.3c0.5,0.5,0.5,1.5,0,2c-0.5,0.2-0.7,0.5-1.2,0.5c-0.2,0-0.7-0.2-1-0.5L16,17.9L3.4,30.3c-0.2,0.2-0.5,0.5-0.7,0.5
	c-0.2,0-0.7-0.2-1-0.5c-0.5-0.5-0.5-1.5,0-2L14.2,16L1.7,3.4C1.2,3,1.2,2,1.7,1.5s1.5-0.5,2,0L16.2,14L28.6,1.7c0.5-0.5,1.5-0.5,2,0
	s0.5,1.5,0,2L18.1,15.9L30.5,28.3z"/>
</svg>
