<?xml version="1.0" encoding="utf-8"?>
<svg version="1.1" id="Layer_1" xmlns="http://www.w3.org/2000/svg" xmlns:xlink="http://www.w3.org/1999/xlink" x="0px" y="0px"
	 viewBox="0 0 120 120" enable-background="new 0 0 120 120" xml:space="preserve">
<g>
	<path fill-rule="evenodd" clip-rule="evenodd" fill="#181616" d="M60,0C26.9,0,0,26.9,0,60c0,26.5,17.2,49,41,56.9
		c3,0.6,4.1-1.3,4.1-2.9c0-1.4-0.1-6.2-0.1-11.2c-16.7,3.6-20.2-7.1-20.2-7.1c-2.7-6.9-6.7-8.8-6.7-8.8c-5.4-3.7,0.4-3.6,0.4-3.6
		c6,0.4,9.2,6.2,9.2,6.2c5.4,9.2,14,6.5,17.5,5c0.5-3.9,2.1-6.5,3.8-8C35.7,85,21.7,79.9,21.7,56.9c0-6.6,2.3-11.9,6.2-16.1
		c-0.6-1.5-2.7-7.6,0.6-15.9c0,0,5-1.6,16.5,6.2c4.8-1.3,9.9-2,15-2c5.1,0,10.2,0.7,15,2c11.5-7.8,16.5-6.2,16.5-6.2
		c3.3,8.3,1.2,14.4,0.6,15.9c3.8,4.2,6.2,9.6,6.2,16.1c0,23.1-14,28.1-27.4,29.6C73,88.4,75,92,75,97.6c0,8-0.1,14.5-0.1,16.5
		c0,1.6,1.1,3.5,4.1,2.9c23.8-7.9,41-30.4,41-56.9C120,26.9,93.2,0,60,0z"/>
	<path fill="#181616" d="M22.7,86.2c-0.1,0.3-0.6,0.4-1,0.2c-0.4-0.2-0.7-0.6-0.5-0.9c0.1-0.3,0.6-0.4,1-0.2
		C22.6,85.5,22.9,85.9,22.7,86.2L22.7,86.2z M22,85.6"/>
	<path fill="#181616" d="M25.2,88.9c-0.3,0.3-0.8,0.1-1.2-0.3c-0.4-0.4-0.5-1-0.2-1.2c0.3-0.3,0.8-0.1,1.2,0.3
		C25.4,88.1,25.5,88.6,25.2,88.9L25.2,88.9z M24.6,88.3"/>
	<path fill="#181616" d="M27.5,92.3c-0.4,0.3-1,0-1.3-0.5c-0.4-0.5-0.4-1.2,0-1.4c0.4-0.3,1,0,1.3,0.5
		C27.9,91.4,27.9,92.1,27.5,92.3L27.5,92.3z M27.5,92.3"/>
	<path fill="#181616" d="M30.8,95.7c-0.3,0.4-1,0.3-1.5-0.2c-0.5-0.5-0.7-1.2-0.3-1.5c0.3-0.4,1-0.3,1.6,0.2
		C31,94.6,31.1,95.3,30.8,95.7L30.8,95.7z M30.8,95.7"/>
	<path fill="#181616" d="M35.2,97.6c-0.1,0.5-0.8,0.7-1.5,0.5c-0.7-0.2-1.1-0.8-1-1.2c0.1-0.5,0.8-0.7,1.5-0.5
		C34.9,96.6,35.4,97.1,35.2,97.6L35.2,97.6z M35.2,97.6"/>
	<path fill="#181616" d="M40.2,98c0,0.5-0.6,0.9-1.3,0.9c-0.7,0-1.3-0.4-1.3-0.9c0-0.5,0.6-0.9,1.3-0.9C39.6,97.1,40.2,97.5,40.2,98
		L40.2,98z M40.2,98"/>
	<path fill="#181616" d="M44.7,97.2c0.1,0.5-0.4,1-1.1,1.1c-0.7,0.1-1.3-0.2-1.4-0.6c-0.1-0.5,0.4-1,1.1-1.1
		C44,96.4,44.6,96.7,44.7,97.2L44.7,97.2z M44.7,97.2"/>
</g>
</svg>
