<?xml version="1.0" encoding="utf-8"?>
<!-- Generator: Adobe Illustrator 26.3.1, SVG Export Plug-In . SVG Version: 6.00 Build 0)  -->
<svg version="1.1" id="hack" xmlns="http://www.w3.org/2000/svg" xmlns:xlink="http://www.w3.org/1999/xlink" x="0px" y="0px"
	 viewBox="0 0 500 500" style="enable-background:new 0 0 500 500;" xml:space="preserve">
<style type="text/css">
	.st0{fill:#3F3F3F;}
</style>
<g>
	<path class="st0" d="M450.2,211.4c-2.5-12.8-6.2-25.3-11.2-37.5c0.4,0.2,0.8,0.2,1.2,0.3c0.3,0.1,0.7,0.1,1.2,0.1
		c1.7,0,3.2-0.4,4.7-1.2c1.5-0.8,2.8-1.8,4-3c1.1-1.3,2-2.7,2.7-4.2s1-3.1,1-4.8v-25.5h-35.2c-9.6-13.9-20.6-26.4-33-37.4
		c-12.4-11-25.8-20.3-40.3-28c-14.5-7.6-29.7-13.5-45.8-17.6c-16.1-4.1-32.6-6.1-49.5-6.1c-16.9,0-33.4,2-49.5,6.1
		c-16.1,4-31.3,9.9-45.8,17.6c-14.5,7.7-27.9,17-40.3,28s-23.4,23.5-33,37.4H46.1v25.5c0,4.2,1.4,7.3,4.2,9.5c2.7,2.2,6,3.3,9.8,3.3
		H61c-5,12.2-8.7,24.7-11.2,37.5c-2.5,12.8-3.7,25.8-3.7,38.9c0,18.8,2.5,36.8,7.3,54.2c4.9,17.4,11.7,33.6,20.6,48.7
		c8.9,15.1,19.5,28.8,31.9,41.2c12.4,12.4,26.1,23,41.2,31.9c15.1,8.9,31.3,15.8,48.7,20.6c17.3,4.9,35.4,7.3,54.2,7.3
		c18.8,0,36.8-2.5,54.2-7.3c17.4-4.9,33.6-11.7,48.7-20.6c15.1-8.9,28.8-19.5,41.2-31.9c12.4-12.4,23-26.1,31.9-41.2
		c8.9-15.1,15.8-31.3,20.6-48.7c4.9-17.3,7.3-35.4,7.3-54.2C453.9,237.2,452.7,224.2,450.2,211.4z M141.7,108.7
		c10.4-7.9,21.5-14.6,33.1-20c11.6-5.4,23.8-9.6,36.4-12.4c12.6-2.9,25.6-4.3,38.8-4.3s26.2,1.4,38.8,4.3c12.6,2.8,24.8,7,36.4,12.4
		c11.7,5.4,22.7,12.1,33.1,20c10.4,7.9,19.9,16.9,28.4,26.9h-98.4l-12.6,12.8h-51.4l-12.8-12.8h-98.2
		C121.8,125.6,131.3,116.6,141.7,108.7z M364.7,224.7h-38.3l-38.1-63.6h38.1L364.7,224.7z M199,224.7h-38.2l-38.2-63.6h38.2
		L199,224.7z M421.9,297.7c-4.3,15.2-10.3,29.4-18,42.6c-7.7,13.3-17,25.3-27.8,36.1c-10.8,10.8-22.9,20.1-36.1,27.8
		s-27.4,13.7-42.6,18s-31,6.4-47.4,6.4c-16.4,0-32.2-2.2-47.3-6.4c-15.2-4.3-29.4-10.3-42.6-18c-13.3-7.7-25.3-17-36.1-27.8
		s-20.1-22.9-27.8-36.1c-7.8-13.2-13.7-27.4-18-42.6c-4.3-15.2-6.4-31-6.4-47.4c0-12.6,1.3-24.9,3.8-37c2.5-12.2,6.3-23.9,11.4-35.4
		c3.8,6.5,7.6,12.9,11.6,19.3c3.9,6.4,7.8,12.9,11.6,19.5c2,3.5,4,6.9,6,10.4s4.2,7,6.4,10.4c0.5,0.9,1.2,2,2.2,3.4
		c1,1.5,2.1,2.9,3.3,4.3c1.2,1.4,2.4,2.6,3.7,3.6s2.4,1.5,3.5,1.5h63.6c3.5,0,6.8-0.6,9.9-1.9c3.1-1.3,5.8-3.1,8.1-5.4
		c2.3-2.4,4.1-5.1,5.5-8.2c1.3-3.1,2-6.5,2-10V212c0-3.5,0.6-6.8,2-9.9c1.4-3.1,3.2-5.8,5.5-8.1c2.3-2.3,5-4.1,8.1-5.4
		c3-1.2,6.4-1.9,9.9-1.9s6.8,0.6,9.9,1.9c3.1,1.3,5.8,3.1,8.1,5.4s4.1,5,5.5,8.1c1.3,3,2,6.4,2,9.9v12.7c0,3.5,0.7,6.8,2,9.9
		c1.3,3.1,3.1,5.8,5.4,8.1c2.3,2.3,5,4.1,8.1,5.5c3,1.3,6.4,2,9.9,2h63.8c3.1,0,5.9-0.9,8.4-2.7c2.5-1.8,4.9-4.1,7-6.8
		c2.2-2.7,4.1-5.7,5.8-8.8c1.7-3.1,3.2-6,4.5-8.6l22.9-44.8c5,11.3,8.8,23,11.3,35.1c2.5,12.1,3.8,24.3,3.8,36.7
		C428.3,266.7,426.2,282.5,421.9,297.7z"/>
	<path class="st0" d="M326.2,296.2c-2.7,0-4.8,0.5-6.1,1.6c-1.4,1.1-2.9,2.6-4.6,4.6c-1.6,2-3.2,4.1-4.6,6.2
		c-1.4,2.1-2.9,4.2-4.6,6.2c-3.3,3.9-7.1,7.4-11.5,10.5c-4.4,3.1-9,5.6-14,7.7c-4.9,2.1-10,3.7-15.2,4.8c-5.2,1.1-10.3,1.7-15.4,1.7
		c-5.1,0-10.2-0.5-15.5-1.6c-5.2-1.1-10.3-2.7-15.3-4.8s-9.6-4.7-14-7.8c-4.4-3.1-8.2-6.6-11.5-10.5c-1.6-2-3.2-4.1-4.6-6.2
		c-1.4-2.1-2.9-4.2-4.6-6.2c-1.7-1.9-3.3-3.4-4.8-4.5c-1.5-1.1-3.6-1.7-6.2-1.7c-3.5,0-6.4,1.3-8.9,3.8c-2.5,2.6-3.7,5.6-3.7,9
		c0,1.3,0.1,2.5,0.4,3.4c0.3,1,0.7,2,1.3,3.2c4,7.6,9.3,14.4,15.7,20.5c6.4,6.1,13.5,11.3,21.4,15.6c7.8,4.3,16.1,7.6,24.7,9.9
		c8.6,2.3,17.1,3.5,25.5,3.5c8.4,0,16.9-1.2,25.5-3.5c8.6-2.3,16.8-5.6,24.6-9.9c7.8-4.3,15-9.5,21.4-15.6
		c6.5-6.1,11.7-12.9,15.7-20.5c0.6-1.2,1-2.3,1.3-3.2c0.3-1,0.4-2.1,0.4-3.4c0-3.5-1.3-6.5-3.8-9
		C332.6,297.5,329.6,296.2,326.2,296.2z"/>
</g>
</svg>
