<!-- Generated by IcoMoon.io -->
<svg version="1.1" xmlns="http://www.w3.org/2000/svg" width="1024" height="1024" viewBox="0 0 1024 1024">
<g id="icomoon-ignore">
</g>
<path fill="#000" d="M469.465 525.076l-457.964-457.807c-15.439-15.439-15.439-40.33 0-55.769s40.33-15.439 55.769 0l457.807 457.964v-115.003c0-21.74 17.644-39.385 39.385-39.385s39.385 17.644 39.385 39.385v209.999c0 0.158 0 0.158 0 0.315 0 0.63 0 1.103 0 1.733 0 0.315 0 0.63 0 0.945s0 0.63 0 0.945c0 0.473-0.158 0.788-0.158 1.26 0 0.158 0 0.473-0.158 0.63 0 0.473-0.158 0.788-0.158 1.26 0 0.158 0 0.473-0.158 0.63-0.158 0.473-0.158 0.788-0.315 1.26 0 0.158-0.158 0.473-0.158 0.63-0.158 0.473-0.158 0.788-0.315 1.26 0 0.158-0.158 0.473-0.158 0.63-0.158 0.315-0.315 0.788-0.315 1.103-0.158 0.315-0.158 0.473-0.315 0.788s-0.315 0.63-0.315 0.945c-0.158 0.315-0.158 0.63-0.315 0.788-0.158 0.315-0.315 0.63-0.315 0.788-0.158 0.315-0.315 0.63-0.473 0.945s-0.158 0.473-0.315 0.788c-0.158 0.315-0.315 0.63-0.473 1.103-0.158 0.158-0.158 0.473-0.315 0.63-0.158 0.315-0.473 0.788-0.63 1.103-0.158 0.158-0.158 0.315-0.315 0.473-0.158 0.315-0.473 0.788-0.63 1.103-0.158 0.158-0.315 0.315-0.315 0.473-0.315 0.315-0.473 0.63-0.788 1.103-0.158 0.158-0.315 0.315-0.473 0.63-0.315 0.315-0.473 0.63-0.788 0.945-0.158 0.158-0.315 0.473-0.63 0.63-0.158 0.315-0.473 0.473-0.63 0.788-0.315 0.315-0.788 0.788-1.103 1.103-0.158 0.158-0.158 0.158-0.315 0.315s-0.158 0.158-0.315 0.315c-0.315 0.315-0.788 0.788-1.103 1.103s-0.473 0.473-0.788 0.63c-0.158 0.158-0.473 0.315-0.63 0.63-0.315 0.315-0.63 0.473-0.945 0.788-0.158 0.158-0.315 0.315-0.473 0.473-0.315 0.315-0.788 0.473-1.103 0.788-0.158 0.158-0.315 0.158-0.473 0.315-0.315 0.315-0.788 0.473-1.103 0.788-0.158 0.158-0.315 0.158-0.473 0.315-0.315 0.158-0.788 0.473-1.103 0.63-0.158 0.158-0.315 0.158-0.63 0.315s-0.788 0.315-1.103 0.63c-0.158 0.158-0.473 0.158-0.63 0.315-0.315 0.158-0.63 0.315-0.945 0.473s-0.473 0.158-0.788 0.315c-0.315 0.158-0.63 0.315-0.945 0.315-0.315 0.158-0.63 0.315-0.945 0.315-0.315 0.158-0.473 0.158-0.788 0.315s-0.788 0.315-1.103 0.315c-0.158 0-0.473 0.158-0.63 0.158-0.315 0.158-0.788 0.158-1.103 0.315-0.158 0-0.473 0.158-0.63 0.158-0.473 0.158-0.788 0.158-1.26 0.315-0.158 0-0.473 0.158-0.63 0.158-0.473 0-0.788 0.158-1.26 0.158-0.315 0-0.473 0-0.788 0.158-0.315 0-0.788 0.158-1.103 0.158s-0.63 0-0.945 0c-0.315 0-0.63 0-0.945 0-0.63 0-1.26 0-1.89 0h-210.471c-21.74 0-39.385-17.644-39.385-39.385s17.644-39.385 39.385-39.385h115.003zM932.155 105.078h-320.906c-21.74 0-39.385 17.644-39.385 39.385s17.644 39.385 39.385 39.385h320.906c7.247 0 13.076 5.829 13.076 13.076v735.232c0 7.247-5.829 13.076-13.076 13.076h-735.232c-7.247 0-13.076-5.829-13.076-13.076v-320.906c0-21.74-17.644-39.385-39.385-39.385s-39.385 17.644-39.385 39.385v320.906c0 50.727 41.275 91.845 91.845 91.845h735.232c50.727 0 91.845-41.275 91.845-91.845v-735.232c0-50.727-41.275-91.845-91.845-91.845z"></path>
</svg>
