<?xml version="1.0" encoding="utf-8"?>
<!-- Generator: Adobe Illustrator 26.3.1, SVG Export Plug-In . SVG Version: 6.00 Build 0)  -->
<svg version="1.1" id="save" xmlns="http://www.w3.org/2000/svg" xmlns:xlink="http://www.w3.org/1999/xlink" x="0px" y="0px"
	 viewBox="0 0 24 24" style="enable-background:new 0 0 24 24;" xml:space="preserve">
<path d="M23.6,6.4l-6-6C17.4,0.1,17.2,0,16.8,0H3.6C1.6,0,0,1.6,0,3.6v16.8c0,2,1.6,3.6,3.6,3.6h16.8c2,0,3.6-1.6,3.6-3.6V7.2
	C24,6.8,23.9,6.6,23.6,6.4z M16.8,21.6H7.2v-7.2h9.6V21.6z M21.6,20.4c0,0.7-0.5,1.2-1.2,1.2h-1.2v-8.4c0-0.7-0.5-1.2-1.2-1.2H6
	c-0.7,0-1.2,0.5-1.2,1.2v8.4H3.6c-0.7,0-1.2-0.5-1.2-1.2V3.6c0-0.7,0.5-1.2,1.2-1.2h1.2v4.8c0,0.7,0.5,1.2,1.2,1.2h9.6
	c0.7,0,1.2-0.5,1.2-1.2S16.3,6,15.6,6H7.2V2.4h9.1l5.3,5.3V20.4z"/>
</svg>
