<?xml version="1.0" encoding="utf-8"?>
<!-- Generator: Adobe Illustrator 26.3.1, SVG Export Plug-In . SVG Version: 6.00 Build 0)  -->
<svg version="1.1" id="Слой_1" xmlns="http://www.w3.org/2000/svg" xmlns:xlink="http://www.w3.org/1999/xlink" x="0px" y="0px"
	 viewBox="0 0 668 668" style="enable-background:new 0 0 668 668;" xml:space="preserve">
<path d="M453.4,126.9l-25.6,43c-23.1-13.7-43.8-37.4-47.5-68.5v0l0,0l24.8-3v0l-24.8,3l-5.1-42.7c-0.5-4.2-4.1-7.3-8.3-7.3v-50
	c29.5,0,54.4,22.1,57.9,51.4h0h0l5.1,42.7C431.3,107,439.6,118.7,453.4,126.9z M105.1,504.8l-43.3,25l-32.9-57l0,0
	c-14.8-25.6-8.1-58.2,15.6-75.9L70,377.9l0,0c11.3-8.5,18.2-24.2,18.2-43.2c0-19-6.8-34.7-18.2-43.2l0,0l-25.5-19.1l15-20l0,0
	l-15,20c-23.7-17.7-30.4-50.3-15.6-75.9l43.3,25c-2.1,3.7-1.2,8.3,2.2,10.8l25.5,19.1l0,0c27.6,20.6,38.2,53.6,38.2,83.2
	c0,29.6-10.6,62.6-38.2,83.2l0,0l0,0c0,0,0,0,0,0h0L74.4,437l-0.1-0.1c0,0.1,0.1,0.1,0.1,0.1h0c-3.4,2.5-4.3,7.2-2.2,10.8
	L105.1,504.8z M73.5,435.8l-1.5-2.1C72.5,434.5,73.1,435.2,73.5,435.8z M74.1,436.6l-0.2-0.3C74,436.5,74.1,436.5,74.1,436.6z
	 M623.5,397l-29.9,40c3.4,2.5,4.3,7.2,2.2,10.8l-32.9,57c-2.1,3.7-6.6,5.2-10.5,3.5l-39.6-17l-19.7,45.9h0l39.6,17
	c27.2,11.6,58.7,1.1,73.5-24.4l32.9-57C653.9,447.3,647.2,414.7,623.5,397z M586.1,369L586.1,369c-8.9-6.6-14.6-19-14.6-34.3
	s5.7-27.7,14.6-34.3l37.4-28c23.7-17.7,30.4-50.3,15.6-75.9l-32.9-57c-14.8-25.6-46.4-36.1-73.5-24.4l9.9,23v0l-9.9-23l-39.6,17l0,0
	c-11.1,4.8-25.6,3.3-39.7-5.1l-25.6,43c23.9,14.2,55.4,20.8,85,8.1l39.6-17l0,0c3.9-1.7,8.4-0.2,10.5,3.5l32.9,57
	c2.1,3.7,1.2,8.3-2.2,10.8l-37.4,28h0c-24.7,18.5-34.7,47.7-34.7,74.3c0,26.6,10,55.9,34.7,74.3l0,0l37.4,28l29.9-40L586.1,369z
	 M72.2,221.5l-43.3-25l32.9-57h0c14.8-25.6,46.4-36.1,73.5-24.4l0,0l32.7,14c12.2,5.2,27.9,3.6,43.3-5.1l0,0
	c16.1-9.1,26.1-22.4,27.6-35.8l24.6,2.9L239,88.2l4.2-35.4c3.5-29.3,28.4-51.4,57.9-51.4h65.8v50h-65.8c-4.2,0-7.8,3.2-8.3,7.3
	l-4.2,35.4l0,0c-4,33.9-27.4,59.2-52.7,73.5v0l0,0c-24.9,14-57.2,20.5-87.6,7.5h0l0,0l-32.7-14c-3.9-1.7-8.4-0.2-10.5,3.5
	L72.2,221.5z M158.1,152.1l-9.7,22.5l-0.2,0.5L158.1,152.1L158.1,152.1z M158.1,152.1l-1.7,3.9L158.1,152.1L158.1,152.1z M74.4,437
	L74.4,437L74.4,437L74.4,437z M158.1,517.3L158.1,517.3l-9.9-23l-32.7,14c-3.9,1.7-8.4,0.2-10.5-3.5l-43.3,25l21.7-12.5h0
	l-21.7,12.5c14.8,25.6,46.4,36.1,73.5,24.4l32.7-14l-0.9-2.2L158.1,517.3z M334,209.7c68.9,0,125,56.1,125,125
	c0,68.9-56.1,125-125,125c-68.9,0-125-56.1-125-125C209,265.7,265.1,209.7,334,209.7z M334,259.7c-41.4,0-75,33.6-75,75
	c0,41.4,33.6,75,75,75c41.4,0,75-33.6,75-75C409,293.3,375.4,259.7,334,259.7z M167.1,538.1l0.6,1.5l-9.6-22.3l0,0L167.1,538.1z
	 M427.8,499.5L427.8,499.5c-23.1,13.7-43.8,37.4-47.5,68.5l0,0l-5.1,42.7c-0.5,4.2-4.1,7.3-8.3,7.4h-65.8c-4.2,0-7.8-3.2-8.3-7.4h0
	l-4.2-35.4l-49.7,5.9l4.2,35.4c3.5,29.3,28.4,51.4,57.9,51.4h65.8c29.5,0,54.4-22.1,57.9-51.4l5.1-42.7l0,0
	c1.4-11.5,9.7-23.3,23.5-31.5l0,0c14.1-8.4,28.6-9.9,39.7-5.1l19.7-45.9C483.2,478.6,451.7,485.2,427.8,499.5z M239,581.1l49.6-5.9
	c-4-33.9-27.4-59.2-52.7-73.5c-24.9-14-57.2-20.5-87.6-7.5l9.9,23h0l9.8,23l-0.3-0.7l0.3,0.7c12.2-5.2,27.9-3.6,43.3,5.1v0
	C227.4,554.4,237.4,567.8,239,581.1z M148.3,494.3L148.3,494.3L148.3,494.3L148.3,494.3z M288.6,575.2L288.6,575.2L288.6,575.2
	L288.6,575.2z M105.1,504.8L105.1,504.8L105.1,504.8L105.1,504.8z M380.3,101.4L380.3,101.4L380.3,101.4L380.3,101.4z M427.8,169.9
	L427.8,169.9C427.8,169.9,427.8,169.9,427.8,169.9L427.8,169.9z"/>
</svg>
